<svg width="58" height="57" viewBox="0 0 58 57" fill="none" xmlns="http://www.w3.org/2000/svg">
<path d="M36.5009 15.4952H36.3404C36.272 15.4952 36.2079 15.4952 36.1395 15.4952C33.9029 15.4952 31.7579 14.6051 30.1766 13.0209C28.595 11.4366 27.7066 9.28796 27.7066 7.04749C27.7066 6.96301 27.7066 6.87854 27.7066 6.79405C27.7104 5.44313 27.3112 4.12187 26.5598 3.00002C25.8086 1.87818 24.7394 1.00699 23.49 0.4984C22.2407 -0.0101929 20.8681 -0.132968 19.5485 0.14585C18.229 0.424667 17.0228 1.09234 16.0849 2.06309C15.147 3.03383 14.5203 4.26332 14.2852 5.59359C14.0502 6.92386 14.2176 8.29413 14.7659 9.52839C15.3142 10.7626 16.2183 11.8045 17.3622 12.5201C18.5061 13.2356 19.8374 13.5923 21.1851 13.5441C23.4216 13.5441 25.5666 14.4342 27.1482 16.0184C28.7295 17.6026 29.618 19.7514 29.618 21.9918C29.618 22.0803 29.618 22.1688 29.618 22.2573C29.6184 23.589 30.0111 24.8911 30.7472 26.0001C31.4833 27.1089 32.5297 27.9756 33.7555 28.4911C34.9814 29.0065 36.3316 29.1479 37.6374 28.8976C38.9431 28.6472 40.1459 28.0163 41.0951 27.0839C42.0442 26.1513 42.6974 24.9588 42.9726 23.656C43.2477 22.3532 43.1328 20.9979 42.6421 19.7602C42.1516 18.5225 41.307 17.4575 40.2146 16.6988C39.1219 15.94 37.8301 15.5213 36.5009 15.4952Z" fill="#81D401"/>
<path d="M13.4991 36.1595V35.9946C13.4991 35.9262 13.4991 35.8618 13.4991 35.7934C13.4991 33.5531 14.3876 31.4044 15.9691 29.8201C17.5506 28.2359 19.6955 27.3458 21.9321 27.3458C22.0164 27.3458 22.0967 27.3458 22.1811 27.3458C23.4951 27.3472 24.7809 26.964 25.8806 26.2435C26.9803 25.5229 27.8461 24.4964 28.3716 23.2897C28.8968 22.0833 29.0591 20.7493 28.8384 19.4516C28.6174 18.154 28.0229 16.9493 27.1281 15.9853C26.2332 15.0214 25.0769 14.3403 23.8009 14.0256C22.5248 13.7109 21.1849 13.7763 19.9456 14.2138C18.7062 14.6513 17.6214 15.4419 16.8243 16.4885C16.0272 17.535 15.5526 18.792 15.4588 20.105C15.4588 20.3383 15.4588 20.5716 15.4588 20.8009C15.4588 23.0413 14.5703 25.1901 12.9888 26.7743C11.4074 28.3585 9.26239 29.2486 7.02583 29.2486C6.93749 29.2486 6.84914 29.2486 6.75678 29.2486C5.42773 29.2473 4.12789 29.639 3.02019 30.3748C1.9125 31.1105 1.04624 32.1574 0.530018 33.3841C0.0137944 34.6111 -0.129423 35.9631 0.118318 37.2712C0.366059 38.5792 0.993736 39.7849 1.92266 40.7371C2.85158 41.6893 4.04042 42.3454 5.34015 42.6238C6.63986 42.9019 7.99261 42.7894 9.22885 42.3007C10.4651 41.8117 11.5297 40.9682 12.2894 39.8758C13.049 38.7835 13.4699 37.4906 13.4991 36.1595Z" fill="#58C402"/>
<path d="M36.24 43.3562H36.0793C36.0111 43.3562 35.9427 43.3562 35.8746 43.3562C33.638 43.3562 31.493 42.4663 29.9114 40.8821C28.3301 39.2978 27.4417 37.1491 27.4417 34.9085C27.4417 34.8242 27.4417 34.7396 27.4417 34.6552C27.4455 33.3045 27.0464 31.9835 26.2955 30.8619C25.5445 29.7401 24.476 28.8689 23.2271 28.3601C21.9782 27.8512 20.606 27.7279 19.2866 28.006C17.9673 28.2841 16.761 28.951 15.8228 29.921C14.8845 30.8909 14.2571 32.1197 14.0211 33.4494C13.7852 34.7792 13.9514 36.1492 14.4984 37.3835C15.0455 38.6181 15.9484 39.6605 17.0912 40.3772C18.234 41.0938 19.5646 41.4518 20.9121 41.4052C23.1486 41.4052 25.2935 42.2953 26.8751 43.8795C28.4565 45.4637 29.3451 47.6125 29.3451 49.8528C29.3451 49.9415 29.3451 50.0299 29.3451 50.1183C29.3429 51.4501 29.7333 52.7528 30.4676 53.863C31.2016 54.9734 32.2467 55.8416 33.4716 56.3594C34.6963 56.8769 36.0466 57.0209 37.3526 56.7727C38.6588 56.5247 39.8627 55.8959 40.8134 54.965C41.7641 54.0342 42.4194 52.8431 42.697 51.5408C42.9746 50.2382 42.862 48.8828 42.3736 47.6442C41.8851 46.4058 41.0425 45.3393 39.9512 44.5786C38.8601 43.8179 37.569 43.3969 36.24 43.3683V43.3562Z" fill="#F9A138"/>
<path d="M41.5845 36.3854V36.2205C41.5845 36.1521 41.5845 36.0877 41.5845 36.0193C41.5845 33.7788 42.4729 31.63 44.0545 30.0458C45.6358 28.4616 47.7808 27.5717 50.0174 27.5717C50.1018 27.5717 50.1822 27.5717 50.2663 27.5717C51.5805 27.5728 52.8664 27.1899 53.966 26.4692C55.0657 25.7488 55.9316 24.7221 56.4568 23.5156C56.9823 22.3091 57.1445 20.9751 56.9236 19.6774C56.7028 18.3798 56.1083 17.1751 55.2133 16.2111C54.3186 15.2472 53.162 14.566 51.8861 14.2513C50.6101 13.9366 49.2703 14.0021 48.0309 14.4396C46.7915 14.8771 45.7067 15.6677 44.9097 16.7143C44.1127 17.7608 43.638 19.0178 43.5441 20.3307C43.5441 20.5681 43.5441 20.8014 43.5441 21.0307C43.5441 23.2711 42.6557 25.4198 41.0741 27.004C39.4928 28.5883 37.3478 29.4784 35.1112 29.4784C35.0227 29.4784 34.9345 29.4784 34.8422 29.4784C33.5132 29.477 32.2133 29.869 31.1055 30.6045C29.9979 31.3402 29.1316 32.3872 28.6154 33.6141C28.0992 34.8408 27.9558 36.193 28.2037 37.501C28.4513 38.8091 29.079 40.0147 30.008 40.9669C30.9369 41.9191 32.1257 42.5754 33.4256 42.8535C34.7252 43.1316 36.078 43.0193 37.3142 42.5304C38.5504 42.0415 39.6151 41.1982 40.3746 40.1056C41.1344 39.0132 41.5551 37.7203 41.5845 36.3895V36.3854Z" fill="#F2822F"/>
</svg>