<svg width="123" height="56" viewBox="0 0 123 56" fill="none" xmlns="http://www.w3.org/2000/svg">
<path d="M3.23506 54.3559H1.09924V48.6709H3.23506C5.0533 48.6709 5.91884 49.7566 5.91884 51.5149C5.91884 53.2733 5.05953 54.3559 3.23506 54.3559ZM3.25997 49.2216H1.78109V53.8052H3.25997C4.57695 53.8052 5.237 53.023 5.237 51.5149C5.237 50.0069 4.57695 49.2216 3.25997 49.2216Z" fill="#13486b"/>
<path d="M6.69139 49.045C6.69057 48.9931 6.70081 48.9417 6.72143 48.8942C6.74204 48.8467 6.77255 48.8041 6.8109 48.7694C6.84926 48.7348 6.89456 48.7087 6.94376 48.6931C6.99296 48.6775 7.04492 48.6727 7.09614 48.6789C7.14702 48.6742 7.19832 48.6802 7.24676 48.6965C7.2952 48.7129 7.33972 48.7392 7.37747 48.7738C7.41523 48.8084 7.44538 48.8505 7.46602 48.8975C7.48665 48.9444 7.49731 48.9952 7.49731 49.0466C7.49731 49.0979 7.48665 49.1487 7.46602 49.1957C7.44538 49.2426 7.41523 49.2848 7.37747 49.3194C7.33972 49.354 7.2952 49.3803 7.24676 49.3966C7.19832 49.4129 7.14702 49.4189 7.09614 49.4142C7.04466 49.4205 6.99242 49.4156 6.943 49.3998C6.89357 49.384 6.84811 49.3577 6.80971 49.3227C6.7713 49.2876 6.74086 49.2447 6.72044 49.1968C6.70003 49.1489 6.69012 49.0971 6.69139 49.045ZM6.77234 54.3639V50.2339H7.42928V54.3545L6.77234 54.3639Z" fill="#13486b"/>
<path d="M8.27832 52.1768C8.27832 50.9785 8.95394 50.1556 10.0592 50.1556C10.3647 50.128 10.6708 50.2009 10.9314 50.3635C11.192 50.526 11.3929 50.7693 11.5038 51.0567V50.2338H12.1265V54.0822C12.1265 55.3525 11.4509 56.0002 10.2367 56.0002C9.0847 56.0002 8.49626 55.4182 8.49626 54.5703H9.10649C9.16254 55.1961 9.58285 55.5434 10.274 55.5434C11.0275 55.5434 11.4727 55.1366 11.4727 54.2261V53.3344C11.2423 53.907 10.7597 54.1949 10.0592 54.1949C8.95394 54.1949 8.27832 53.372 8.27832 52.1768ZM11.4727 52.1768C11.4727 51.1693 10.9559 50.6343 10.2024 50.6343C9.44897 50.6343 8.93837 51.1693 8.93837 52.1768C8.93837 53.1843 9.4552 53.7162 10.2024 53.7162C10.9496 53.7162 11.4727 53.1811 11.4727 52.1768Z" fill="#13486b"/>
<path d="M13.0641 49.045C13.0633 48.9931 13.0735 48.9417 13.0941 48.8942C13.1147 48.8467 13.1452 48.8041 13.1836 48.7694C13.2219 48.7348 13.2672 48.7087 13.3164 48.6931C13.3656 48.6775 13.4176 48.6727 13.4688 48.6789C13.5197 48.6742 13.571 48.6802 13.6194 48.6965C13.6679 48.7129 13.7124 48.7392 13.7502 48.7738C13.7879 48.8084 13.8181 48.8505 13.8387 48.8975C13.8593 48.9444 13.87 48.9952 13.87 49.0466C13.87 49.0979 13.8593 49.1487 13.8387 49.1957C13.8181 49.2426 13.7879 49.2848 13.7502 49.3194C13.7124 49.354 13.6679 49.3803 13.6194 49.3966C13.571 49.4129 13.5197 49.4189 13.4688 49.4142C13.4173 49.4205 13.3651 49.4156 13.3157 49.3998C13.2663 49.384 13.2208 49.3577 13.1824 49.3227C13.144 49.2876 13.1135 49.2447 13.0931 49.1968C13.0727 49.1489 13.0628 49.0971 13.0641 49.045ZM13.1419 54.3639V50.2339H13.802V54.3545L13.1419 54.3639Z" fill="#13486b"/>
<path d="M15.1681 53.397V50.7094H14.4675V50.2276H15.1681V48.9761H15.8281V50.2276H16.8119V50.7094H15.8281V53.4064C15.8281 53.8069 15.962 53.9008 16.3823 53.9008L16.8119 53.8851V54.3482C16.6532 54.3482 16.3916 54.3888 16.2484 54.3888C15.4607 54.3951 15.1681 54.1511 15.1681 53.397Z" fill="#13486b"/>
<path d="M17.4479 53.1907C17.4479 52.5837 17.8308 52.1112 18.8302 52.0236L19.5868 51.9611C20.141 51.911 20.2998 51.7921 20.2998 51.4886C20.2998 50.963 20.0071 50.6345 19.3222 50.6345C18.6995 50.6345 18.3539 50.9067 18.3072 51.4886H17.6845C17.6845 50.6751 18.1826 50.1558 19.3284 50.1558C20.4741 50.1558 20.9723 50.6751 20.9723 51.4886V53.3002C20.9432 53.6567 20.9866 54.0155 21.0999 54.3546H20.5084C20.3581 54.1235 20.2951 53.846 20.3309 53.5724C20.1099 54.1481 19.6242 54.4359 18.9018 54.4359C17.974 54.4359 17.4479 53.9572 17.4479 53.1907ZM20.2998 52.5649V52.1582C20.0996 52.3234 19.8456 52.4081 19.5868 52.396L19.0202 52.446C18.3695 52.4929 18.1079 52.7589 18.1079 53.1562C18.1079 53.6256 18.3944 53.9791 19.0762 53.9791C19.8888 53.9729 20.3153 53.3252 20.3153 52.5587L20.2998 52.5649Z" fill="#13486b"/>
<path d="M21.9689 54.3549V48.6699H22.6304V54.3549H21.9689Z" fill="#13486b"/>
<path d="M30.0263 54.3549L29.4628 52.9188H26.7448L26.1812 54.3549H25.4745L27.6913 48.6699H28.5163L30.7331 54.3549H30.0263ZM28.0991 49.3238L26.916 52.3838H29.276L28.0991 49.3238Z" fill="#13486b"/>
<path d="M31.2655 53.1031H31.8882C31.9287 53.613 32.1342 53.9791 32.9623 53.9791C33.7905 53.9791 34.0147 53.613 34.0147 53.2126C34.0147 52.8121 33.7594 52.6556 33.339 52.5868L32.5358 52.4679C31.7637 52.3553 31.39 52.0674 31.39 51.4073C31.39 50.7471 31.7823 50.1558 32.9717 50.1558C34.161 50.1558 34.5626 50.7221 34.5626 51.426H33.9399C33.8995 51.0005 33.7749 50.6094 32.9779 50.6094C32.3023 50.6094 32.0439 50.891 32.0439 51.3603C32.0439 51.7608 32.268 51.8891 32.6167 51.936L33.4262 52.0549C34.189 52.1676 34.6716 52.4617 34.6716 53.1813C34.6716 53.9009 34.2264 54.4328 32.9717 54.4328C31.717 54.4328 31.2655 53.8696 31.2655 53.1031Z" fill="#13486b"/>
<path d="M35.3475 53.1031H35.9702C36.0107 53.613 36.2162 53.9791 37.0444 53.9791C37.8725 53.9791 38.0749 53.613 38.0749 53.2126C38.0749 52.8121 37.8227 52.6556 37.3993 52.5868L36.5991 52.4679C35.827 52.3553 35.4534 52.0674 35.4534 51.4073C35.4534 50.7471 35.8426 50.1558 37.035 50.1558C38.2275 50.1558 38.6229 50.7221 38.6229 51.426H38.0002C37.9597 51.0005 37.8321 50.6094 37.0381 50.6094C36.3625 50.6094 36.1041 50.891 36.1041 51.3603C36.1041 51.7608 36.3252 51.8891 36.677 51.936L37.4865 52.0549C38.2493 52.1676 38.7318 52.4617 38.7318 53.1813C38.7318 53.9009 38.2866 54.4328 37.0319 54.4328C35.7772 54.4328 35.3475 53.8696 35.3475 53.1031Z" fill="#13486b"/>
<path d="M39.4321 52.2958C39.4321 51.0256 40.0828 50.1558 41.3469 50.1558C42.6109 50.1558 43.271 51.0506 43.271 52.1988C43.2788 52.2654 43.2788 52.3326 43.271 52.3991H40.0922C40.0922 53.516 40.6308 53.9635 41.3936 53.9635C41.6638 53.9842 41.9326 53.9083 42.1526 53.7491C42.3725 53.59 42.5293 53.3578 42.5954 53.0937H43.1838C42.9908 53.9134 42.4272 54.4265 41.3936 54.4265C40.1326 54.4359 39.4321 53.6193 39.4321 52.2958ZM40.0922 51.9517H42.6109C42.5238 51.0568 42.0536 50.6188 41.3469 50.6188C40.6401 50.6188 40.1794 51.0568 40.0922 51.9611V51.9517Z" fill="#13486b"/>
<path d="M44.3971 53.397V50.7094H43.6965V50.2276H44.3971V48.9761H45.0571V50.2276H46.041V50.7094H45.0571V53.4064C45.0571 53.8069 45.191 53.9008 45.6113 53.9008L46.041 53.8851V54.3482C45.8822 54.3482 45.6206 54.3888 45.4774 54.3888C44.6928 54.3951 44.3971 54.1511 44.3971 53.397Z" fill="#13486b"/>
<path d="M54.3906 54.3549V49.3176L52.3419 54.3549H51.7597L49.7111 49.3176V54.3549H49.051V48.6699H50.1158L52.0648 53.3631L54.0014 48.6699H55.0662V54.3549H54.3906Z" fill="#13486b"/>
<path d="M55.949 53.1907C55.949 52.5837 56.3319 52.1112 57.3313 52.0236L58.0879 51.9611C58.6452 51.911 58.804 51.7921 58.804 51.4886C58.804 50.963 58.4926 50.6345 57.8264 50.6345C57.2037 50.6345 56.855 50.9067 56.8083 51.4886H56.1856C56.1856 50.6751 56.6869 50.1558 57.8295 50.1558C58.9721 50.1558 59.4734 50.6751 59.4734 51.4886V53.3002C59.4459 53.6567 59.4893 54.0151 59.601 54.3546H59.0219C58.873 54.123 58.8112 53.8456 58.8476 53.5724C58.6234 54.1481 58.1408 54.4359 57.4154 54.4359C56.4751 54.4359 55.949 53.9572 55.949 53.1907ZM58.804 52.5649V52.1582C58.6023 52.3228 58.3475 52.4074 58.0879 52.396L57.5244 52.446C56.8737 52.4929 56.609 52.7589 56.609 53.1562C56.609 53.6256 56.8955 53.9791 57.5804 53.9791C58.3899 53.9729 58.804 53.3252 58.804 52.5587V52.5649Z" fill="#13486b"/>
<path d="M63.1649 54.3545V51.7357C63.1649 51.0505 62.919 50.6907 62.2589 50.6907C61.5989 50.6907 61.1287 51.2257 61.1287 52.0549V54.3545H60.478V50.2339H61.1007V50.9942C61.2093 50.7312 61.3971 50.5089 61.6377 50.3585C61.8784 50.2082 62.1598 50.1372 62.4426 50.1557C63.3766 50.1557 63.825 50.6344 63.825 51.6325V54.3545H63.1649Z" fill="#13486b"/>
<path d="M64.6729 53.1907C64.6729 52.5837 65.0558 52.1112 66.0552 52.0236L66.8118 51.9611C67.3691 51.911 67.5279 51.7921 67.5279 51.4886C67.5279 50.963 67.2321 50.6345 66.5503 50.6345C65.9276 50.6345 65.5789 50.9067 65.5322 51.4886H64.9095C64.9095 50.6751 65.4107 50.1558 66.5534 50.1558C67.696 50.1558 68.1973 50.6751 68.1973 51.4886V53.3002C68.1698 53.6567 68.2132 54.0151 68.3249 54.3546H67.7334C67.5844 54.123 67.5226 53.8456 67.559 53.5724C67.3348 54.1481 66.8523 54.4359 66.1268 54.4359C65.199 54.4359 64.6729 53.9572 64.6729 53.1907ZM67.5279 52.5649V52.1582C67.3262 52.3228 67.0714 52.4074 66.8118 52.396L66.2483 52.446C65.5975 52.4929 65.3329 52.7589 65.3329 53.1562C65.3329 53.6256 65.6193 53.9791 66.3043 53.9791C67.1138 53.9729 67.5279 53.3252 67.5279 52.5587V52.5649Z" fill="#13486b"/>
<path d="M69.0374 52.1769C69.0374 50.9786 69.7099 50.1557 70.8151 50.1557C71.121 50.1279 71.4277 50.2007 71.6888 50.3632C71.9499 50.5258 72.1514 50.7692 72.2629 51.0568V50.2339H72.8856V54.0823C72.8856 55.3526 72.21 56.0002 70.9957 56.0002C69.8437 56.0002 69.2553 55.4183 69.2553 54.5704H69.8593C69.9153 55.1961 70.3357 55.5434 71.0268 55.5434C71.7834 55.5434 72.2255 55.1367 72.2255 54.2262V53.3345C71.9951 53.9071 71.5125 54.1949 70.812 54.1949C69.7099 54.1949 69.0374 53.3721 69.0374 52.1769ZM72.2286 52.1769C72.2286 51.1694 71.7149 50.6344 70.9584 50.6344C70.2018 50.6344 69.6943 51.1694 69.6943 52.1769C69.6943 53.1844 70.2111 53.7162 70.9584 53.7162C71.7056 53.7162 72.2286 53.1812 72.2286 52.1769Z" fill="#13486b"/>
<path d="M73.7383 52.2958C73.7383 51.0256 74.389 50.1558 75.653 50.1558C76.9171 50.1558 77.5771 51.0506 77.5771 52.1988C77.585 52.2654 77.585 52.3326 77.5771 52.3991H74.3983C74.3983 53.516 74.9401 53.9635 75.7028 53.9635C75.9726 53.9835 76.2406 53.9072 76.4599 53.7481C76.6792 53.589 76.8355 53.3572 76.9015 53.0937H77.4899C77.2969 53.9134 76.7334 54.4265 75.7028 54.4265C74.4388 54.4359 73.7383 53.6193 73.7383 52.2958ZM74.3983 51.9517H76.9171C76.8299 51.0568 76.3598 50.6188 75.653 50.6188C74.9463 50.6188 74.4886 51.0568 74.3983 51.9611V51.9517Z" fill="#13486b"/>
<path d="M83.132 54.3548V51.7203C83.132 51.0351 82.9234 50.691 82.3754 50.691C81.8274 50.691 81.3978 51.2103 81.3978 52.0395V54.3548H80.7751V51.7203C80.7751 51.0351 80.5603 50.691 80.0279 50.691C79.4955 50.691 79.0658 51.2103 79.0658 52.0395V54.3548H78.4431V50.2342H79.0658V50.9945C79.1445 50.7481 79.2998 50.5337 79.5089 50.3827C79.7179 50.2318 79.9697 50.1523 80.2271 50.156C80.4925 50.1282 80.7582 50.205 80.9685 50.3701C81.1787 50.5353 81.3169 50.7759 81.3542 51.0414C81.4335 50.7807 81.5953 50.5532 81.815 50.3934C82.0347 50.2335 82.3004 50.1502 82.5715 50.156C83.3904 50.156 83.7796 50.6347 83.7796 51.6327V54.3548H83.132Z" fill="#13486b"/>
<path d="M84.6168 52.2958C84.6168 51.0256 85.2675 50.1558 86.5316 50.1558C87.7956 50.1558 88.4526 51.0506 88.4526 52.1988C88.4553 52.266 88.45 52.3332 88.437 52.3991H85.2738C85.2924 53.516 85.8155 53.9635 86.5783 53.9635C86.8481 53.9841 87.1165 53.9081 87.3359 53.7489C87.5553 53.5897 87.7116 53.3576 87.777 53.0937H88.3654C88.1755 53.9134 87.6119 54.4265 86.5783 54.4265C85.3142 54.4359 84.6168 53.6193 84.6168 52.2958ZM85.2738 51.9517H87.7925C87.7054 51.0568 87.2383 50.6188 86.5316 50.6188C85.8248 50.6188 85.3641 51.0568 85.2738 51.9611V51.9517Z" fill="#13486b"/>
<path d="M91.9956 54.3545V51.7357C91.9956 51.0505 91.7496 50.6907 91.0927 50.6907C90.4358 50.6907 89.9625 51.2257 89.9625 52.0549V54.3545H89.3025V50.2339H89.9252V50.9942C90.0338 50.7312 90.2216 50.5089 90.4622 50.3585C90.7029 50.2082 90.9843 50.1372 91.2671 50.1557C92.2011 50.1557 92.6494 50.6344 92.6494 51.6325V54.3545H91.9956Z" fill="#13486b"/>
<path d="M93.9449 53.397V50.7094H93.2444V50.2276H93.9449V48.9761H94.605V50.2276H95.5888V50.7094H94.605V53.4064C94.605 53.8069 94.7388 53.9008 95.1591 53.9008L95.5888 53.8851V54.3482C95.43 54.3482 95.1685 54.3888 95.0253 54.3888C94.2376 54.3951 93.9449 54.1511 93.9449 53.397Z" fill="#13486b"/>
<path d="M98.3782 51.5136C98.3782 49.7802 99.2904 48.5913 101.062 48.5913C102.597 48.5913 103.553 49.5299 103.553 50.65H102.93C102.827 49.7959 102.214 49.1576 101.078 49.1576C99.7605 49.1576 99.0756 50.0118 99.0756 51.5136C99.0756 53.0154 99.7605 53.8695 101.078 53.8695C102.198 53.8695 102.827 53.2626 102.93 52.3271H103.553C103.553 53.4847 102.64 54.4358 101.062 54.4358C99.2904 54.4358 98.3782 53.2438 98.3782 51.5136Z" fill="#13486b"/>
<path d="M104.231 52.2958C104.231 51.0256 104.885 50.1558 106.146 50.1558C107.407 50.1558 108.07 51.0506 108.07 52.1988C108.072 52.266 108.067 52.3332 108.054 52.3991H104.891C104.906 53.516 105.433 53.9635 106.195 53.9635C106.465 53.9835 106.733 53.9072 106.952 53.7481C107.172 53.589 107.328 53.3572 107.394 53.0937H107.983C107.793 53.9134 107.226 54.4265 106.195 54.4265C104.931 54.4359 104.231 53.6193 104.231 52.2958ZM104.891 51.9517H107.41C107.322 51.0568 106.852 50.6188 106.146 50.6188C105.439 50.6188 104.978 51.0568 104.891 51.9611V51.9517Z" fill="#13486b"/>
<path d="M111.613 54.3545V51.7357C111.613 51.0505 111.367 50.6907 110.707 50.6907C110.047 50.6907 109.58 51.2257 109.58 52.0549V54.3545H108.92V50.2339H109.543V50.9942C109.651 50.7312 109.839 50.5089 110.08 50.3585C110.321 50.2082 110.602 50.1372 110.885 50.1557C111.819 50.1557 112.267 50.6344 112.267 51.6325V54.3545H111.613Z" fill="#13486b"/>
<path d="M113.56 53.397V50.7094H112.862V50.2276H113.56V48.9761H114.22V50.2276H115.207V50.7094H114.22V53.4064C114.22 53.8069 114.354 53.9008 114.777 53.9008L115.207 53.8851V54.3482C115.048 54.3482 114.783 54.3888 114.64 54.3888C113.855 54.3951 113.56 54.1511 113.56 53.397Z" fill="#13486b"/>
<path d="M115.611 52.2958C115.611 51.0256 116.262 50.1558 117.526 50.1558C118.79 50.1558 119.447 51.0506 119.447 52.1988C119.455 52.2654 119.455 52.3326 119.447 52.3991H116.268C116.287 53.516 116.81 53.9635 117.573 53.9635C117.843 53.9841 118.111 53.9081 118.331 53.7489C118.55 53.5897 118.706 53.3576 118.772 53.0937H119.36C119.17 53.9134 118.607 54.4265 117.573 54.4265C116.309 54.4359 115.611 53.6193 115.611 52.2958ZM116.268 51.9517H118.787C118.7 51.0568 118.233 50.6188 117.542 50.6188C116.851 50.6188 116.359 51.0568 116.268 51.9611V51.9517Z" fill="#13486b"/>
<path d="M120.296 54.3544V50.2338H120.918V51.21C121.14 50.4904 121.513 50.1963 122.126 50.1963C122.252 50.1986 122.377 50.2111 122.5 50.2338V50.8095H122.102C121.404 50.8095 120.95 51.3696 120.95 52.3739V54.3607L120.296 54.3544Z" fill="#13486b"/>
<path d="M60.6922 38.5668V20.4982C60.6922 20.0833 60.5282 19.6854 60.2363 19.392C59.9443 19.0986 59.5484 18.9338 59.1355 18.9338H55.2188C54.806 18.9338 54.41 18.769 54.1181 18.4756C53.8261 18.1822 53.6621 17.7843 53.6621 17.3694V13.4272C53.6621 13.0123 53.8261 12.6144 54.1181 12.321C54.41 12.0276 54.806 11.8628 55.2188 11.8628H73.202C73.6149 11.8628 74.0108 12.0276 74.3028 12.321C74.5947 12.6144 74.7587 13.0123 74.7587 13.4272V17.36C74.7587 17.7749 74.5947 18.1728 74.3028 18.4662C74.0108 18.7596 73.6149 18.9244 73.202 18.9244H69.2884C68.8756 18.9244 68.4796 19.0892 68.1877 19.3826C67.8957 19.676 67.7317 20.0739 67.7317 20.4888V38.5574C67.7317 38.9723 67.5677 39.3702 67.2758 39.6636C66.9838 39.957 66.5879 40.1218 66.175 40.1218H62.2552C61.8429 40.1235 61.4467 39.9607 61.1537 39.6691C60.8607 39.3776 60.6947 38.9812 60.6922 38.5668Z" fill="#13486b"/>
<path d="M77.0448 38.5666V34.6369C77.0448 34.222 77.2088 33.8241 77.5008 33.5307C77.7927 33.2374 78.1886 33.0725 78.6015 33.0725H89.5483C89.9612 33.0725 90.3572 32.9077 90.6491 32.6143C90.9411 32.321 91.1051 31.923 91.1051 31.5082V31.1108C91.1051 30.6959 90.9411 30.298 90.6491 30.0046C90.3572 29.7112 89.9612 29.5464 89.5483 29.5464H80.563C80.1006 29.5556 79.6412 29.4698 79.213 29.2945C78.7847 29.1191 78.3965 28.8577 78.0722 28.5264C77.7459 28.198 77.488 27.8075 77.3137 27.3777C77.1394 26.9479 77.0522 26.4875 77.0573 26.0234V15.3919C77.0494 14.9302 77.1354 14.4718 77.3099 14.0446C77.4844 13.6175 77.7438 13.2306 78.0722 12.9076C78.395 12.5724 78.7823 12.3066 79.2105 12.1265C79.6386 11.9463 80.0988 11.8555 80.563 11.8595H96.594C97.0069 11.8595 97.4029 12.0243 97.6948 12.3177C97.9867 12.6111 98.1508 13.009 98.1508 13.4239V17.3599C98.1508 17.7748 97.9867 18.1727 97.6948 18.4661C97.4029 18.7594 97.0069 18.9243 96.594 18.9243H85.641C85.2281 18.9243 84.8322 19.0891 84.5402 19.3825C84.2483 19.6758 84.0843 20.0737 84.0843 20.4886V20.8922C84.0843 21.3071 84.2483 21.7051 84.5402 21.9984C84.8322 22.2918 85.2281 22.4566 85.641 22.4566H94.6326C95.0944 22.4496 95.5527 22.5391 95.9782 22.7195C96.4038 22.9 96.7874 23.1674 97.1046 23.5048C97.4383 23.826 97.7032 24.2123 97.8831 24.64C98.063 25.0677 98.1541 25.5278 98.1508 25.9921V36.5955C98.1587 37.0625 98.0701 37.5261 97.8905 37.957C97.711 38.3878 97.4445 38.7765 97.1078 39.0985C96.785 39.4269 96.3999 39.6867 95.9752 39.8625C95.5505 40.0383 95.095 40.1264 94.6357 40.1216H78.6046C78.1928 40.1225 77.7975 39.9593 77.5051 39.6679C77.2128 39.3764 77.0473 38.9805 77.0448 38.5666Z" fill="#13486b"/>
<path d="M100.43 38.5666V34.6369C100.43 34.222 100.594 33.8241 100.886 33.5307C101.178 33.2373 101.574 33.0725 101.987 33.0725H112.934C113.346 33.0725 113.742 32.9077 114.034 32.6143C114.326 32.3209 114.49 31.923 114.49 31.5081V31.1108C114.49 30.6959 114.326 30.298 114.034 30.0046C113.742 29.7112 113.346 29.5464 112.934 29.5464H103.948C103.486 29.5556 103.026 29.4698 102.598 29.2944C102.17 29.1191 101.782 28.8577 101.457 28.5264C101.131 28.198 100.873 27.8075 100.699 27.3777C100.525 26.9479 100.437 26.4875 100.442 26.0234V15.3919C100.435 14.9302 100.521 14.4718 100.695 14.0446C100.87 13.6175 101.129 13.2306 101.457 12.9076C101.78 12.5724 102.167 12.3066 102.596 12.1265C103.024 11.9463 103.484 11.8555 103.948 11.8595H119.973C120.386 11.8595 120.782 12.0243 121.074 12.3177C121.366 12.6111 121.53 13.009 121.53 13.4239V17.3599C121.53 17.7748 121.366 18.1727 121.074 18.4661C120.782 18.7594 120.386 18.9243 119.973 18.9243H109.026C108.613 18.9243 108.217 19.0891 107.925 19.3824C107.633 19.6758 107.469 20.0737 107.469 20.4886V20.8922C107.469 21.3071 107.633 21.7051 107.925 21.9984C108.217 22.2918 108.613 22.4566 109.026 22.4566H118.015C118.477 22.4493 118.936 22.5387 119.362 22.7192C119.788 22.8996 120.172 23.1671 120.49 23.5048C120.825 23.828 121.09 24.217 121.27 24.6475C121.449 25.0781 121.539 25.541 121.533 26.0078V36.6112C121.541 37.0782 121.452 37.5418 121.273 37.9726C121.093 38.4034 120.827 38.7922 120.49 39.1142C120.167 39.4429 119.781 39.703 119.356 39.8788C118.931 40.0545 118.474 40.1424 118.015 40.1373H101.99C101.785 40.1377 101.581 40.0973 101.392 40.0185C101.202 39.9397 101.03 39.8239 100.885 39.678C100.74 39.532 100.625 39.3587 100.547 39.1679C100.469 38.9772 100.429 38.7729 100.43 38.5666Z" fill="#13486b"/>
<path d="M28.1665 11.9841H28.0426C27.9899 11.9841 27.9403 11.9841 27.8876 11.9841C26.1618 11.9841 24.5066 11.2957 23.2862 10.0705C22.0658 8.84519 21.3802 7.18338 21.3802 5.45059C21.3802 5.38525 21.3802 5.31992 21.3802 5.25458C21.3833 4.20976 21.0751 3.18788 20.4953 2.32024C19.9155 1.4526 19.0906 0.778817 18.1265 0.385467C17.1624 -0.00788329 16.1032 -0.102838 15.0849 0.112801C14.0667 0.328441 13.1359 0.844825 12.4122 1.59561C11.6885 2.3464 11.2048 3.29729 11.0235 4.32613C10.8421 5.35497 10.9713 6.41475 11.3944 7.36933C11.8175 8.32391 12.5152 9.12968 13.3978 9.68311C14.2805 10.2365 15.3078 10.5124 16.3478 10.4752C18.0737 10.4752 19.7289 11.1635 20.9493 12.3888C22.1696 13.614 22.8552 15.2759 22.8552 17.0086C22.8552 17.0771 22.8552 17.1455 22.8552 17.214C22.8554 18.2439 23.1585 19.2509 23.7265 20.1086C24.2945 20.9663 25.1021 21.6365 26.0479 22.0352C26.9938 22.4339 28.0359 22.5433 29.0435 22.3496C30.051 22.156 30.9792 21.668 31.7116 20.9468C32.444 20.2257 32.948 19.3034 33.1604 18.2958C33.3728 17.2881 33.2841 16.2399 32.9055 15.2827C32.5269 14.3255 31.8752 13.5018 31.0321 12.9149C30.189 12.3281 29.1922 12.0043 28.1665 11.9841Z" fill="#81d401"/>
<path d="M10.4168 27.966V27.8384C10.4168 27.7855 10.4168 27.7358 10.4168 27.6829C10.4168 25.9501 11.1024 24.2883 12.3228 23.063C13.5431 21.8377 15.1983 21.1494 16.9242 21.1494C16.9893 21.1494 17.0512 21.1494 17.1163 21.1494C18.1303 21.1504 19.1226 20.8541 19.9712 20.2968C20.8198 19.7396 21.4879 18.9456 21.8933 18.0124C22.2987 17.0793 22.4239 16.0475 22.2535 15.044C22.083 14.0404 21.6243 13.1086 20.9338 12.3631C20.2432 11.6176 19.3508 11.0908 18.3662 10.8474C17.3816 10.604 16.3476 10.6546 15.3913 10.993C14.4349 11.3314 13.5978 11.9428 12.9827 12.7522C12.3676 13.5616 12.0014 14.5338 11.929 15.5492C11.929 15.7297 11.929 15.9101 11.929 16.0875C11.929 17.8203 11.2434 19.4821 10.023 20.7074C8.80263 21.9326 7.14745 22.621 5.42158 22.621C5.35341 22.621 5.28523 22.621 5.21396 22.621C4.18839 22.62 3.18534 22.923 2.33057 23.492C1.47581 24.061 0.807346 24.8707 0.408995 25.8195C0.0106447 26.7683 -0.0998712 27.8141 0.0913019 28.8258C0.282475 29.8374 0.76683 30.7699 1.48365 31.5063C2.20047 32.2427 3.11785 32.7503 4.12079 32.9654C5.12374 33.1805 6.16762 33.0936 7.12156 32.7155C8.07551 32.3375 8.89708 31.6851 9.48328 30.8402C10.0695 29.9953 10.3942 28.9954 10.4168 27.966Z" fill="#58c402"/>
<path d="M27.9651 33.5322H27.8412C27.7885 33.5322 27.7358 33.5322 27.6832 33.5322C25.9573 33.5322 24.3021 32.8438 23.0817 31.6185C21.8614 30.3933 21.1758 28.7314 21.1758 26.9987C21.1758 26.9333 21.1758 26.868 21.1758 26.8027C21.1788 25.7581 20.8709 24.7364 20.2914 23.8689C19.7119 23.0014 18.8873 22.3275 17.9236 21.934C16.9599 21.5404 15.901 21.445 14.8829 21.6601C13.8648 21.8752 12.9339 22.391 12.2099 23.1412C11.4859 23.8913 11.0018 24.8416 10.8197 25.8701C10.6376 26.8985 10.7658 27.9581 11.188 28.9129C11.6101 29.8676 12.3069 30.6738 13.1887 31.2281C14.0706 31.7823 15.0974 32.0592 16.1372 32.0232C17.863 32.0232 19.5182 32.7116 20.7386 33.9368C21.959 35.1621 22.6446 36.8239 22.6446 38.5567C22.6446 38.6252 22.6446 38.6936 22.6446 38.7621C22.643 39.792 22.9443 40.7995 23.5108 41.6582C24.0773 42.5169 24.8837 43.1885 25.8288 43.5888C26.774 43.9892 27.8159 44.1004 28.8238 43.9086C29.8317 43.7168 30.7607 43.2304 31.4944 42.5105C32.228 41.7907 32.7337 40.8693 32.9478 39.8621C33.162 38.8548 33.0752 37.8065 32.6982 36.8486C32.3213 35.8906 31.6711 35.0658 30.8291 34.4775C29.987 33.8892 28.9908 33.5635 27.9651 33.5415V33.5322Z" fill="#f9a138"/>
<path d="M32.0893 28.1408V28.0132C32.0893 27.9603 32.0893 27.9106 32.0893 27.8577C32.0893 26.1249 32.7749 24.4631 33.9952 23.2378C35.2156 22.0125 36.8708 21.3242 38.5967 21.3242C38.6617 21.3242 38.7237 21.3242 38.7888 21.3242C39.8028 21.3252 40.7951 21.0289 41.6437 20.4716C42.4923 19.9144 43.1603 19.1204 43.5658 18.1872C43.9712 17.2541 44.0964 16.2224 43.9259 15.2188C43.7555 14.2152 43.2968 13.2834 42.6062 12.5379C41.9157 11.7924 41.0233 11.2656 40.0387 11.0222C39.0541 10.7788 38.0201 10.8294 37.0637 11.1678C36.1074 11.5062 35.2703 12.1176 34.6552 12.927C34.0401 13.7364 33.6739 14.7086 33.6015 15.7241C33.6015 15.9076 33.6015 16.0881 33.6015 16.2654C33.6015 17.9982 32.9159 19.66 31.6955 20.8853C30.4751 22.1105 28.8199 22.7989 27.0941 22.7989C27.0259 22.7989 26.9577 22.7989 26.8864 22.7989C25.8609 22.7979 24.8578 23.1009 24.0031 23.6699C23.1483 24.2389 22.4798 25.0486 22.0815 25.9974C21.6831 26.9462 21.5726 27.992 21.7638 29.0037C21.955 30.0153 22.4393 30.9478 23.1561 31.6842C23.873 32.4206 24.7903 32.9282 25.7933 33.1433C26.7962 33.3584 27.8401 33.2715 28.794 32.8934C29.748 32.5154 30.5696 31.863 31.1558 31.0181C31.742 30.1732 32.0667 29.1733 32.0893 28.1439V28.1408Z" fill="#f2822f"/>
</svg>
