<svg width="18" height="18" viewBox="0 0 18 18" fill="none" xmlns="http://www.w3.org/2000/svg">
<path d="M9.00002 0.666664C4.40835 0.666664 0.666687 4.40833 0.666687 9C0.666687 13.5917 4.40835 17.3333 9.00002 17.3333C13.5917 17.3333 17.3334 13.5917 17.3334 9C17.3334 4.40833 13.5917 0.666664 9.00002 0.666664ZM12.9834 7.08333L8.25835 11.8083C8.14169 11.925 7.98335 11.9917 7.81669 11.9917C7.65002 11.9917 7.49169 11.925 7.37502 11.8083L5.01669 9.45C4.77502 9.20833 4.77502 8.80833 5.01669 8.56666C5.25835 8.325 5.65835 8.325 5.90002 8.56666L7.81669 10.4833L12.1 6.2C12.3417 5.95833 12.7417 5.95833 12.9834 6.2C13.225 6.44166 13.225 6.83333 12.9834 7.08333Z" fill="#446DFF"/>
</svg>
