<svg width="24" height="24" viewBox="0 0 24 24" fill="none" xmlns="http://www.w3.org/2000/svg">
<path d="M16.96 6.16992C18.96 7.55992 20.34 9.76992 20.62 12.3199" stroke="#58667E" stroke-width="1.5" stroke-linecap="round" stroke-linejoin="round"/>
<path d="M3.48999 12.3702C3.74999 9.83021 5.10999 7.62021 7.08999 6.22021" stroke="#58667E" stroke-width="1.5" stroke-linecap="round" stroke-linejoin="round"/>
<path d="M8.19 20.9399C9.35 21.5299 10.67 21.8599 12.06 21.8599C13.4 21.8599 14.66 21.5599 15.79 21.0099" stroke="#58667E" stroke-width="1.5" stroke-linecap="round" stroke-linejoin="round"/>
<path d="M12.06 7.70014C13.5954 7.70014 14.84 6.45549 14.84 4.92014C14.84 3.38479 13.5954 2.14014 12.06 2.14014C10.5247 2.14014 9.28003 3.38479 9.28003 4.92014C9.28003 6.45549 10.5247 7.70014 12.06 7.70014Z" stroke="#58667E" stroke-width="1.5" stroke-linecap="round" stroke-linejoin="round"/>
<path d="M4.82999 19.9199C6.36534 19.9199 7.60999 18.6752 7.60999 17.1399C7.60999 15.6045 6.36534 14.3599 4.82999 14.3599C3.29464 14.3599 2.04999 15.6045 2.04999 17.1399C2.04999 18.6752 3.29464 19.9199 4.82999 19.9199Z" stroke="#58667E" stroke-width="1.5" stroke-linecap="round" stroke-linejoin="round"/>
<path d="M19.17 19.9199C20.7054 19.9199 21.95 18.6752 21.95 17.1399C21.95 15.6045 20.7054 14.3599 19.17 14.3599C17.6347 14.3599 16.39 15.6045 16.39 17.1399C16.39 18.6752 17.6347 19.9199 19.17 19.9199Z" stroke="#58667E" stroke-width="1.5" stroke-linecap="round" stroke-linejoin="round"/>
</svg>
