<svg width="11" height="14" viewBox="0 0 11 14" fill="none" xmlns="http://www.w3.org/2000/svg">
<path d="M10.0136 7.22001L9.20026 6.40668C9.00693 6.24001 8.89359 5.99334 8.88693 5.72001C8.87359 5.42001 8.99359 5.12001 9.21359 4.90001L10.0136 4.10001C10.7069 3.40668 10.9669 2.74001 10.7469 2.21334C10.5336 1.69334 9.87359 1.40668 8.90026 1.40668H1.93359V0.833344C1.93359 0.56001 1.70693 0.333344 1.43359 0.333344C1.16026 0.333344 0.933594 0.56001 0.933594 0.833344V13.1667C0.933594 13.44 1.16026 13.6667 1.43359 13.6667C1.70693 13.6667 1.93359 13.44 1.93359 13.1667V9.91334H8.90026C9.86026 9.91334 10.5069 9.62001 10.7269 9.09334C10.9469 8.56668 10.6936 7.90668 10.0136 7.22001Z" fill="#446DFF"/>
</svg>
