<svg width="49" height="48" viewBox="0 0 49 48" fill="none" xmlns="http://www.w3.org/2000/svg">
<path d="M34.54 5.76C33.58 4.8 31.66 4 30.3 4H18.7C17.34 4 15.42 4.8 14.46 5.76L6.26 13.96C5.3 14.92 4.5 16.84 4.5 18.2V29.8C4.5 31.16 5.3 33.08 6.26 34.04L9.32 37.1L37.6 8.82L34.54 5.76Z" fill="#EA3943"/>
<path d="M42.7395 13.9599L39.7195 10.9399L11.4395 39.2199L14.4595 42.2399C15.4195 43.1999 17.3395 43.9999 18.6995 43.9999H30.2995C31.6595 43.9999 33.5795 43.1999 34.5395 42.2399L42.7395 34.0399C43.6995 33.0799 44.4995 31.1599 44.4995 29.7999V18.1999C44.4995 16.8399 43.6995 14.9199 42.7395 13.9599Z" fill="#EA3943"/>
<path d="M5.47992 40.9401C4.89992 41.5201 4.89992 42.4801 5.47992 43.0601C5.77992 43.3601 6.15992 43.5001 6.53992 43.5001C6.91992 43.5001 7.29992 43.3601 7.59992 43.0601L11.4399 39.2201L9.31992 37.1001L5.47992 40.9401Z" fill="#EA3943"/>
<path d="M43.5596 7.09992C44.1396 6.51992 44.1396 5.55992 43.5596 4.97992C42.9796 4.39992 42.0196 4.39992 41.4396 4.97992L37.5996 8.81992L39.7196 10.9399L43.5596 7.09992Z" fill="#EA3943"/>
</svg>
