<svg width="48" height="48" viewBox="0 0 48 48" fill="none" xmlns="http://www.w3.org/2000/svg">
<path d="M38.9604 5.63995L39.5204 6.77995C39.8004 7.33995 40.5004 7.85995 41.1204 7.97995L41.8804 8.09995C44.1604 8.47995 44.7004 10.16 43.0604 11.82L42.3604 12.52C41.9004 13 41.6404 13.92 41.7804 14.56L41.8804 14.9799C42.5004 17.74 41.0404 18.8 38.6404 17.36L38.1204 17.0599C37.5004 16.7 36.5004 16.7 35.8804 17.0599L35.3604 17.36C32.9404 18.82 31.4804 17.74 32.1204 14.9799L32.2204 14.56C32.3604 13.92 32.1004 13 31.6404 12.52L30.9404 11.8C29.3004 10.14 29.8404 8.45995 32.1204 8.07995L32.8804 7.95995C33.4804 7.85995 34.2004 7.31995 34.4804 6.75995L35.0404 5.61995C36.1204 3.45995 37.8804 3.45995 38.9604 5.63995Z" fill="#446DFF"/>
<path d="M43.14 20.18C42.42 20.7 40.4 21.66 37.52 20.18C37.2 20.02 36.8 20 36.48 20.18C35.34 20.76 34.3 21 33.48 21C32.2 21 31.3 20.5 30.86 20.18C30.12 19.64 28.56 18.1 29.1 14.84C29.16 14.5 29.06 14.16 28.84 13.9C27.46 12.32 26.7 10.2 27.24 8.54C27.44 7.88 27.02 7 26.34 7H14C8 7 4 10 4 17V31C4 38 8 41 14 41H34C40 41 44 38 44 31V20.54C44 20.16 43.46 19.96 43.14 20.18ZM28.68 24.18C27.36 25.24 25.68 25.76 24 25.76C22.32 25.76 20.62 25.24 19.32 24.18L13.06 19.18C12.42 18.66 12.32 17.7 12.82 17.06C13.34 16.42 14.28 16.3 14.92 16.82L21.18 21.82C22.7 23.04 25.28 23.04 26.8 21.82C27.44 21.3 28.38 21.4 28.9 22.06C29.44 22.7 29.34 23.66 28.68 24.18Z" fill="#446DFF"/>
</svg>
